<svg xmlns="http://www.w3.org/2000/svg" version="1.1" xmlnsXlink="http://www.w3.org/1999/xlink" xmlnsSvgjs="http://svgjs.dev/svgjs" width="300" height="623" viewBox="0 0 1000 623"><g transform="matrix(1,0,0,1,-0.6060606060606233,0.2522267206477409)"><svg viewBox="0 0 396 247" data-background-color="#ffffff" preserveAspectRatio="xMidYMid meet" height="623" width="1000" xmlns="http://www.w3.org/2000/svg" xmlns:xlink="http://www.w3.org/1999/xlink"><g id="tight-bounds" transform="matrix(1,0,0,1,0.2400000000000091,-0.09999999999999432)"><svg viewBox="0 0 395.52 247.2" height="247.2" width="395.52"><g><svg></svg></g><g><svg viewBox="0 0 395.52 247.2" height="247.2" width="395.52"><g transform="matrix(1,0,0,1,75.54432,83.76471057917826)"><svg viewBox="0 0 244.43135999999998 79.67057884164348" height="79.67057884164348" width="244.43135999999998"><g><svg viewBox="0 0 244.43135999999998 79.67057884164348" height="79.67057884164348" width="244.43135999999998"><g><svg viewBox="0 0 244.43135999999998 79.67057884164348" height="79.67057884164348" width="244.43135999999998"><g><svg viewBox="0 0 244.43135999999998 79.67057884164348" height="79.67057884164348" width="244.43135999999998"><g id="textblocktransform"><svg viewBox="0 0 244.43135999999998 79.67057884164348" height="79.67057884164348" width="244.43135999999998" id="textblock"><g><svg viewBox="0 0 244.43135999999998 42.97050328122659" height="42.97050328122659" width="244.43135999999998"><g transform="matrix(1,0,0,1,0,0)"><svg width="244.43135999999998" viewBox="1.2699999809265137 -33.88999938964844 195.5169219970703 34.380001068115234" height="42.97050328122659" data-palette-color="#6f605b"><path d="M7.96-32.13L7.96-32.13Q9.38-32.13 11.23-32.2 13.09-32.28 14.55-32.28L14.55-32.28Q16.02-32.28 17.46-32.01 18.9-31.74 20.34-31.05 21.78-30.37 22.88-29.37 23.97-28.37 24.68-26.81 25.39-25.24 25.39-23.34L25.39-23.34Q25.39-21.04 24.19-18.85 23-16.65 20.58-15.11 18.16-13.57 15.14-13.57L15.14-13.57Q14.11-13.57 13.09-13.94 12.06-14.31 11.67-14.84L11.67-14.84Q11.57-14.94 11.5-15.33 11.43-15.72 11.47-16.06 11.52-16.41 11.62-16.41L11.62-16.41Q12.74-15.92 14.36-15.92L14.36-15.92Q16.7-15.92 18.07-17.85 19.43-19.78 19.43-22.71L19.43-22.71Q19.43-25.98 18.12-27.88 16.8-29.79 14.06-29.79L14.06-29.79Q12.01-29.79 11.23-29.44L11.23-29.44Q10.64-29.15 10.64-24.37L10.64-24.37 10.64-6.93Q10.64-4 11.04-2.78L11.04-2.78Q11.18-2.2 12.67-1.83 14.16-1.46 14.84-1.46L14.84-1.46Q15.04-1.46 15.04-0.63L15.04-0.63Q15.04-0.1 14.94 0.2L14.94 0.2Q9.57-0.1 8.01-0.1L8.01-0.1Q6.69-0.1 5.05-0.02 3.42 0.05 2.44 0.1L2.44 0.1 1.46 0.2Q1.32 0 1.32-0.68L1.32-0.68Q1.32-1.46 1.46-1.46L1.46-1.46Q2.1-1.46 3.34-1.78 4.59-2.1 4.79-2.54L4.79-2.54Q5.08-3.42 5.08-6.98L5.08-6.98 5.08-25.44Q5.08-28.22 4.79-29.44L4.79-29.44Q4.64-29.83 3.34-30.25 2.05-30.66 1.46-30.66L1.46-30.66Q1.27-30.66 1.27-31.4L1.27-31.4Q1.27-32.13 1.46-32.28L1.46-32.28Q6.59-32.13 7.96-32.13ZM43.94-21.58L43.94-21.58Q50.19-21.58 50.19-11.96L50.19-11.96 50.19-6.93Q50.19-3.96 50.58-2.54L50.58-2.54Q50.63-2.2 51.88-1.83 53.12-1.46 53.56-1.46L53.56-1.46Q53.71-1.46 53.73-0.76 53.76-0.05 53.71 0.2L53.71 0.2Q53.37 0.15 51.1 0 48.83-0.15 47.75-0.15L47.75-0.15Q46.53-0.15 44.46 0 42.38 0.15 41.89 0.2L41.89 0.2Q41.75 0 41.75-0.73 41.75-1.46 41.89-1.46L41.89-1.46Q42.48-1.46 43.58-1.83 44.68-2.2 44.82-2.54L44.82-2.54Q45.11-4 45.11-6.1L45.11-6.1 45.11-10.89Q45.11-14.94 44.02-16.48 42.92-18.02 40.52-18.02L40.52-18.02Q39.06-18.02 37.84-17.19 36.62-16.36 36.62-15.33L36.62-15.33 36.62-6.93Q36.62-3.96 37.01-2.54L37.01-2.54Q37.11-2.2 38.3-1.83 39.5-1.46 39.94-1.46L39.94-1.46Q40.09-1.46 40.11-0.76 40.13-0.05 40.04 0.2L40.04 0.2Q39.65 0.15 37.47 0 35.3-0.15 34.18-0.15L34.18-0.15Q33.01-0.15 30.78 0 28.56 0.15 28.17 0.2L28.17 0.2Q27.98 0 27.98-0.73 27.98-1.46 28.17-1.46L28.17-1.46Q28.76-1.46 29.95-1.83 31.15-2.2 31.25-2.54L31.25-2.54Q31.59-4 31.59-6.05L31.59-6.05 31.59-26.37Q31.59-28.32 31.35-29.69L31.35-29.69Q31.1-30.47 28.81-30.47L28.81-30.47 28.37-30.47Q28.07-30.47 28.07-31.25L28.07-31.25Q28.07-32.03 28.37-32.03L28.37-32.03Q29.88-32.18 31.25-32.42 32.61-32.67 33.52-32.91 34.42-33.15 35.08-33.4 35.74-33.64 36.11-33.76 36.47-33.89 36.47-33.89L36.47-33.89 36.57-33.89Q36.77-33.89 36.96-33.62 37.16-33.35 37.2-33.11L37.2-33.11Q36.62-31.2 36.62-28.52L36.62-28.52 36.62-18.65Q36.62-18.36 36.81-18.36L36.81-18.36Q36.86-18.36 37.01-18.51L37.01-18.51Q38.03-19.68 40.01-20.63 41.99-21.58 43.94-21.58ZM66.6-19.29L66.6-19.29Q64.3-19.29 63.03-17.07 61.76-14.84 61.76-11.77L61.76-11.77Q61.76-7.81 63.35-4.88 64.94-1.95 67.77-1.95L67.77-1.95Q70.06-1.95 71.36-4.2 72.65-6.45 72.65-9.47L72.65-9.47Q72.65-12.01 72.02-14.18 71.38-16.36 69.97-17.82 68.55-19.29 66.6-19.29ZM67.23-21.58L67.23-21.58Q71.82-21.58 75.07-18.38 78.32-15.19 78.32-10.64L78.32-10.64Q78.32-6.1 75.12-2.88 71.92 0.34 67.28 0.34L67.28 0.34Q62.64 0.34 59.42-2.88 56.2-6.1 56.2-10.64L56.2-10.64Q56.2-15.23 59.39-18.41 62.59-21.58 67.23-21.58ZM96.92-21.58L96.92-21.58Q103.22-21.58 103.22-11.57L103.22-11.57 103.22-6.93Q103.22-3.96 103.56-2.54L103.56-2.54Q103.65-2.2 104.9-1.83 106.14-1.46 106.58-1.46L106.58-1.46Q106.73-1.46 106.76-0.76 106.78-0.05 106.68 0.2L106.68 0.2Q106.39 0.15 104.12 0 101.85-0.15 100.72-0.15L100.72-0.15Q99.55-0.15 97.48 0 95.4 0.15 94.96 0.2L94.96 0.2Q94.77 0 94.77-0.73 94.77-1.46 94.96-1.46L94.96-1.46Q95.5-1.46 96.6-1.83 97.7-2.2 97.8-2.54L97.8-2.54Q98.19-4 98.19-6.1L98.19-6.1 98.19-10.74Q98.19-14.79 97.09-16.41 95.99-18.02 93.6-18.02L93.6-18.02Q92.03-18.02 90.86-17.16 89.69-16.31 89.69-15.33L89.69-15.33 89.69-6.93Q89.69-3.96 90.03-2.54L90.03-2.54Q90.13-2.2 91.33-1.83 92.52-1.46 92.91-1.46L92.91-1.46Q93.11-1.46 93.13-0.76 93.16-0.05 93.06 0.2L93.06 0.2Q92.67 0.15 90.5 0 88.32-0.15 87.2-0.15L87.2-0.15Q86.03-0.15 83.81 0 81.58 0.15 81.19 0.2L81.19 0.2Q81 0 81-0.73 81-1.46 81.19-1.46L81.19-1.46Q81.78-1.46 82.98-1.83 84.17-2.2 84.27-2.54L84.27-2.54Q84.61-4 84.61-6.1L84.61-6.1 84.61-14.06Q84.61-16.36 83.83-17.19L83.83-17.19Q83.44-17.68 82.73-17.92 82.02-18.16 81.56-18.21 81.1-18.26 81.1-18.36L81.1-18.36Q81.1-19.78 81.34-19.82L81.34-19.82Q83.59-20.02 89.2-21.29L89.2-21.29Q89.25-21.34 89.32-21.36 89.4-21.39 89.47-21.39 89.54-21.39 89.59-21.39L89.59-21.39Q89.79-21.39 89.93-21.04 90.08-20.7 90.08-20.51L90.08-20.51Q89.89-19.14 89.89-18.75L89.89-18.75Q89.89-18.55 89.93-18.51L89.93-18.51Q89.98-18.51 90.18-18.65L90.18-18.65Q91.35-19.82 93.18-20.7 95.01-21.58 96.92-21.58ZM119.13-19.34L119.13-19.34Q117.96-19.34 117.03-18.65 116.1-17.97 115.62-16.99 115.13-16.02 114.91-15.16 114.69-14.31 114.69-13.72L114.69-13.72Q114.69-13.38 114.98-13.38L114.98-13.38 122.89-13.38Q123.33-13.38 123.33-14.11L123.33-14.11Q123.33-15.82 122.18-17.58 121.03-19.34 119.13-19.34ZM119.47-21.58L119.47-21.58Q121.77-21.58 123.57-20.68 125.38-19.78 126.41-18.38 127.43-16.99 127.97-15.5 128.51-14.01 128.51-12.65L128.51-12.65Q128.51-11.57 128.14-11.3 127.77-11.04 126.65-11.04L126.65-11.04 114.98-11.04Q114.64-11.04 114.64-10.74L114.64-10.74Q114.64-8.98 115.27-7.32 115.91-5.66 117.45-4.44 118.98-3.22 121.13-3.22L121.13-3.22Q121.87-3.22 122.55-3.3 123.23-3.37 123.82-3.54 124.4-3.71 124.84-3.86 125.28-4 125.75-4.3 126.21-4.59 126.41-4.71 126.6-4.83 126.99-5.1 127.38-5.37 127.38-5.37L127.38-5.37Q127.48-5.32 127.63-5.08 127.77-4.83 127.77-4.59L127.77-4.59Q127.77-4.05 127.48-3.66L127.48-3.66Q126.75-2.34 124.6-1.03 122.45 0.29 119.77 0.29L119.77 0.29Q115.52 0.29 112.44-2.86 109.37-6.01 109.37-10.5L109.37-10.5Q109.37-15.43 112.22-18.51 115.08-21.58 119.47-21.58ZM138.71-21.63L138.71-21.63Q141.44-21.63 144.37-20.8L144.37-20.8Q144.86-18.6 144.91-15.33L144.91-15.33Q144.91-14.94 144.27-14.94L144.27-14.94Q143.2-14.94 143.1-15.33L143.1-15.33Q142.76-17.04 141.66-18.24 140.56-19.43 138.71-19.43L138.71-19.43Q137.29-19.43 136.49-18.8 135.68-18.16 135.68-16.99L135.68-16.99Q135.68-16.31 135.95-15.75 136.22-15.19 136.83-14.7 137.44-14.21 137.9-13.92 138.37-13.62 139.29-13.13L139.29-13.13Q139.64-12.94 139.78-12.89L139.78-12.89Q139.88-12.84 140.51-12.5 141.15-12.16 141.32-12.06 141.49-11.96 142.1-11.6 142.71-11.23 142.96-11.04 143.2-10.84 143.71-10.45 144.23-10.06 144.45-9.77 144.67-9.47 145.03-9.01 145.4-8.54 145.54-8.13 145.69-7.71 145.81-7.2 145.93-6.69 145.93-6.15L145.93-6.15Q145.93-3.08 143.57-1.29 141.2 0.49 137.83 0.49L137.83 0.49Q134.8 0.49 131.53-0.88L131.53-0.88Q131.29-1.71 131.04-3.59 130.8-5.47 130.8-6.4L130.8-6.4Q131.09-6.64 131.48-6.64L131.48-6.64Q132.6-6.64 132.65-6.25L132.65-6.25Q133.04-4.2 134.58-2.95 136.12-1.71 137.93-1.71L137.93-1.71Q139.29-1.71 140.17-2.39 141.05-3.08 141.05-4.39L141.05-4.39Q141.05-4.88 140.93-5.3 140.81-5.71 140.47-6.13 140.12-6.54 139.9-6.81 139.68-7.08 139.03-7.47 138.37-7.86 138.05-8.03 137.73-8.2 136.83-8.67 135.93-9.13 135.58-9.33L135.58-9.33Q133.34-10.5 132.12-11.94 130.9-13.38 130.9-15.43L130.9-15.43Q130.9-18.41 133.24-20.02 135.58-21.63 138.71-21.63ZM156.67-2.83L156.67-2.83Q157.99-2.83 158.94-3.52 159.9-4.2 159.9-5.08L159.9-5.08 159.9-10.06Q159.56-9.91 158.46-9.57 157.36-9.23 156.77-8.98 156.19-8.74 155.4-8.3 154.62-7.86 154.26-7.23 153.89-6.59 153.89-5.86L153.89-5.86Q153.89-4.3 154.67-3.56 155.45-2.83 156.67-2.83ZM158.87-21.58L158.87-21.58Q161.9-21.58 163.41-20 164.93-18.41 164.93-14.55L164.93-14.55 164.93-4.93Q164.93-3.96 165.37-3.44 165.81-2.93 166.54-2.93L166.54-2.93Q167.27-2.93 168.2-3.56L168.2-3.56Q168.49-3.47 168.49-3.03L168.49-3.03Q168.49-2.05 168.2-1.56L168.2-1.56Q167.47-0.98 166.24-0.34 165.02 0.29 163.9 0.29L163.9 0.29Q162.78 0.29 161.7-0.54 160.63-1.37 160.29-2.34L160.29-2.34Q160.24-2.29 159.92-2.03 159.6-1.76 159.04-1.37 158.48-0.98 157.77-0.59 157.07-0.2 156.11 0.07 155.16 0.34 154.18 0.34L154.18 0.34Q151.74 0.34 150.2-1 148.67-2.34 148.67-4.69L148.67-4.69Q148.67-5.86 149.23-6.88 149.79-7.91 150.57-8.57 151.35-9.23 152.67-9.86 153.99-10.5 154.94-10.82 155.89-11.13 157.38-11.57 158.87-12.01 159.46-12.21L159.46-12.21Q159.9-12.4 159.9-12.99L159.9-12.99 159.9-15.67Q159.9-17.38 159.12-18.36 158.33-19.34 157.02-19.34L157.02-19.34Q155.55-19.34 154.72-18.43 153.89-17.53 153.89-15.87L153.89-15.87Q153.89-14.89 153.16-14.43 152.43-13.96 151.5-13.96L151.5-13.96Q149.69-13.96 148.96-15.14L148.96-15.14Q148.96-17.48 152.16-19.53 155.36-21.58 158.87-21.58ZM179.18-28.52L179.18-7.03Q179.18-4 179.52-2.64L179.52-2.64Q179.62-2.29 180.72-1.88 181.82-1.46 182.21-1.46L182.21-1.46Q182.36-1.46 182.38-0.78 182.4-0.1 182.31 0.15L182.31 0.15Q181.62 0.1 180.48 0.02 179.33-0.05 178.4-0.1 177.47-0.15 176.64-0.15L176.64-0.15Q175.71-0.15 174.79-0.1 173.86-0.05 172.74 0.02 171.61 0.1 170.88 0.15L170.88 0.15Q170.69-0.05 170.69-0.76 170.69-1.46 170.88-1.46L170.88-1.46Q171.42-1.46 172.52-1.88 173.62-2.29 173.71-2.64L173.71-2.64Q174.1-4.35 174.1-6.25L174.1-6.25 174.1-26.56Q174.1-28.42 173.81-29.88L173.81-29.88Q173.57-30.66 171.37-30.66L171.37-30.66 170.88-30.66Q170.59-30.66 170.59-31.25L170.59-31.25Q170.59-32.03 170.88-32.03L170.88-32.03Q172.39-32.18 173.76-32.42 175.13-32.67 176.03-32.91 176.94-33.15 177.59-33.37 178.25-33.59 178.64-33.74L178.64-33.74 178.99-33.89 179.08-33.89Q179.28-33.89 179.5-33.59 179.72-33.3 179.77-33.11L179.77-33.11Q179.18-31.25 179.18-28.52L179.18-28.52ZM193.58-28.52L193.58-7.03Q193.58-4 193.93-2.64L193.93-2.64Q194.02-2.29 195.12-1.88 196.22-1.46 196.61-1.46L196.61-1.46Q196.76-1.46 196.78-0.78 196.81-0.1 196.71 0.15L196.71 0.15Q196.02 0.1 194.88 0.02 193.73-0.05 192.8-0.1 191.87-0.15 191.04-0.15L191.04-0.15Q190.12-0.15 189.19-0.1 188.26-0.05 187.14 0.02 186.02 0.1 185.28 0.15L185.28 0.15Q185.09-0.05 185.09-0.76 185.09-1.46 185.28-1.46L185.28-1.46Q185.82-1.46 186.92-1.88 188.02-2.29 188.11-2.64L188.11-2.64Q188.51-4.35 188.51-6.25L188.51-6.25 188.51-26.56Q188.51-28.42 188.21-29.88L188.21-29.88Q187.97-30.66 185.77-30.66L185.77-30.66 185.28-30.66Q184.99-30.66 184.99-31.25L184.99-31.25Q184.99-32.03 185.28-32.03L185.28-32.03Q186.8-32.18 188.16-32.42 189.53-32.67 190.43-32.91 191.34-33.15 192-33.37 192.66-33.59 193.05-33.74L193.05-33.74 193.39-33.89 193.49-33.89Q193.68-33.89 193.9-33.59 194.12-33.3 194.17-33.11L194.17-33.11Q193.58-31.25 193.58-28.52L193.58-28.52Z" opacity="1" transform="matrix(1,0,0,1,0,0)" fill="#6f605b" class="undefined-text-0" data-fill-palette-color="primary" id="text-0"></path></svg></g></svg></g><g transform="matrix(1,0,0,1,0,53.11480781384544)"><svg viewBox="0 0 244.43135999999998 26.555771027798034" height="26.555771027798034" width="244.43135999999998"><g transform="matrix(1,0,0,1,0,0)"><svg width="244.43135999999998" viewBox="1.0700000524520874 -31.760000228881836 299.1000061035156 32.4900016784668" height="26.555771027798034" data-palette-color="#f36527"><path d="M1.07 0L11.99 0 12.23-1.46 7.76-2.1 9.5-25.85 18.68-1 20.85-1.34 31.18-26.54 32.57-2.25 28.44-1.32 28.25 0 40.43 0 40.58-1.46 36.16-2.1 34.84-28.17 39.01-29 39.18-30.37 30.4-30.37 28.76-26.66 20.61-6.54 13.6-25.71 11.77-30.37 2.98-30.37 2.76-29 7.25-28.1 5.37-2.25 1.27-1.32 1.07 0ZM58.57 0.66Q61.24 0.66 63.48-0.78 65.73-2.22 67.05-4.81 68.36-7.4 68.36-10.72L68.36-10.72Q68.36-13.84 67.24-16.36 66.12-18.87 64.03-20.31 61.94-21.75 59.18-21.75L59.18-21.75Q56.43-21.75 54.08-20.34 51.74-18.92 50.36-16.27 48.98-13.62 48.98-10.03L48.98-10.03Q48.98-6.88 50.16-4.46 51.35-2.03 53.53-0.68 55.72 0.66 58.57 0.66L58.57 0.66ZM58.13-19.68Q60.31-19.68 61.85-18.15 63.38-16.63 64.15-14.23 64.92-11.84 64.92-9.28L64.92-9.28Q64.92-7.1 64.26-5.29 63.6-3.47 62.36-2.39 61.11-1.32 59.43-1.32L59.43-1.32Q57.18-1.32 55.6-2.77 54.01-4.22 53.22-6.62 52.42-9.01 52.42-11.79L52.42-11.79Q52.42-13.96 53.09-15.77 53.76-17.58 55.06-18.63 56.35-19.68 58.13-19.68L58.13-19.68ZM80.28-28.78L80.28-1.2Q83.04 0.59 86.36 0.59L86.36 0.59Q89.58 0.59 92.29-0.82 95-2.22 96.6-4.93 98.2-7.64 98.2-11.38L98.2-11.38Q98.2-14.43 97.24-16.75 96.27-19.07 94.52-20.35 92.76-21.63 90.44-21.63L90.44-21.63Q86.7-21.63 83.38-17.9L83.38-17.9 83.09-17.9 83.43-20.43 83.43-31.23 83.07-31.62 76.77-31.13 76.55-29.81 80.28-28.78ZM83.43-16.31Q84.82-17.77 86.19-18.47 87.56-19.17 88.8-19.17L88.8-19.17Q91.9-19.17 93.32-16.63 94.74-14.09 94.74-9.91L94.74-9.91Q94.74-7.3 93.84-5.4 92.95-3.49 91.53-2.5 90.1-1.51 88.51-1.51L88.51-1.51Q86.9-1.51 85.53-1.93 84.16-2.34 83.43-3.08L83.43-3.08 83.43-16.31ZM111.59-26.68Q112.56-26.68 113.12-27.39 113.69-28.1 113.69-29.27L113.69-29.27Q113.69-30.4 113.1-31.08 112.51-31.76 111.59-31.76L111.59-31.76Q110.66-31.76 110.1-31.08 109.54-30.4 109.54-29.27L109.54-29.27Q109.54-28.13 110.08-27.4 110.63-26.68 111.59-26.68L111.59-26.68ZM106.44 0L117.25 0 117.52-1.39 113.61-2.12 113.61-21.26 113.22-21.66 106.9-21.12 106.7-19.87 110.41-18.85 110.41-2.12 106.73-1.34 106.44 0ZM126 0L136.79 0 137.08-1.39 133.15-2.12 133.15-31.35 132.73-31.74 126.34-31.23 126.19-29.96 130-28.96 130-2.12 126.24-1.34 126 0ZM154.15 0.73Q156.49 0.73 158.45-0.15 160.4-1.03 161.69-2.54L161.69-2.54 161.23-3.61Q159.86-2.69 158.62-2.29 157.37-1.9 155.83-1.9L155.83-1.9Q153.54-1.9 151.98-3.15 150.41-4.39 149.65-6.42 148.88-8.45 148.83-10.86L148.83-10.86 160.64-11.01Q160.81-11.65 160.94-12.63 161.06-13.62 161.06-14.21L161.06-14.21Q161.06-17.92 159.41-19.78 157.76-21.63 154.96-21.63L154.96-21.63Q152.54-21.63 150.33-20.28 148.12-18.92 146.75-16.33 145.38-13.75 145.38-10.25L145.38-10.25Q145.38-6.69 146.58-4.21 147.78-1.73 149.77-0.5 151.76 0.73 154.15 0.73L154.15 0.73ZM153.76-19.75Q155.54-19.75 156.58-18.43 157.62-17.11 157.62-14.89L157.62-14.89Q157.62-13.43 157.45-12.94L157.45-12.94 148.88-12.38Q148.92-14.77 149.6-16.43 150.27-18.09 151.35-18.92 152.44-19.75 153.76-19.75L153.76-19.75ZM191.73 0.61Q194.61 0.61 196.98-0.5 199.35-1.61 200.72-3.6 202.08-5.59 202.08-8.08L202.08-8.08Q202.08-10.13 201.05-11.71 200.01-13.28 198.53-14.37 197.05-15.45 194.56-16.92L194.56-16.92Q192.27-18.29 190.94-19.23 189.61-20.17 188.7-21.47 187.8-22.78 187.8-24.44L187.8-24.44Q187.8-25.98 188.44-27.08 189.07-28.17 190.16-28.74 191.24-29.3 192.56-29.3L192.56-29.3Q193.98-29.3 195.35-28.52 196.71-27.73 197.23-26.76L197.23-26.76 197.86-21.44 199.64-21.22 200.3-28.44Q198.98-29.69 197.15-30.35 195.32-31.01 193.29-31.01L193.29-31.01Q191.05-31.01 189.02-30.04 187-29.08 185.74-27.23 184.48-25.39 184.48-22.9L184.48-22.9Q184.48-20.73 185.54-19.07 186.61-17.41 188.12-16.28 189.63-15.16 192.15-13.65L192.15-13.65Q194.3-12.38 195.55-11.47 196.81-10.57 197.65-9.38 198.49-8.18 198.49-6.69L198.49-6.69Q198.49-4.98 197.65-3.78 196.81-2.59 195.47-1.99 194.12-1.39 192.66-1.39L192.66-1.39Q190.78-1.39 189.16-2.23 187.53-3.08 186.78-4.42L186.78-4.42 185.97-9.38 184.14-9.64 183.6-2.91Q184.85-1.39 187.02-0.39 189.19 0.61 191.73 0.61L191.73 0.61ZM213.22-18.82L213.12-6.13Q213.1-2.61 214.28-1.01 215.47 0.59 217.79 0.59L217.79 0.59Q219.59 0.59 221.24-0.35 222.89-1.29 224.01-2.91L224.01-2.91 223.55-3.98Q223.55-3.96 222.9-3.53 222.25-3.1 221.41-2.75 220.57-2.39 219.76-2.39L219.76-2.39Q218.57-2.39 217.84-2.84 217.1-3.3 216.75-4.42 216.4-5.54 216.4-7.57L216.4-7.57 216.47-18.75 223.21-18.75 223.4-20.51 216.49-20.51 216.49-26.07 215.35-26.07Q214.39-23.71 213.14-22.16 211.88-20.61 210.12-19.8L210.12-19.8 210.12-18.82 213.22-18.82ZM241.81 0.66Q244.48 0.66 246.72-0.78 248.97-2.22 250.29-4.81 251.6-7.4 251.6-10.72L251.6-10.72Q251.6-13.84 250.48-16.36 249.36-18.87 247.27-20.31 245.18-21.75 242.43-21.75L242.43-21.75Q239.67-21.75 237.32-20.34 234.98-18.92 233.6-16.27 232.22-13.62 232.22-10.03L232.22-10.03Q232.22-6.88 233.4-4.46 234.59-2.03 236.77-0.68 238.96 0.66 241.81 0.66L241.81 0.66ZM241.38-19.68Q243.55-19.68 245.09-18.15 246.62-16.63 247.39-14.23 248.16-11.84 248.16-9.28L248.16-9.28Q248.16-7.1 247.5-5.29 246.84-3.47 245.6-2.39 244.35-1.32 242.67-1.32L242.67-1.32Q240.42-1.32 238.84-2.77 237.25-4.22 236.46-6.62 235.66-9.01 235.66-11.79L235.66-11.79Q235.66-13.96 236.33-15.77 237.01-17.58 238.3-18.63 239.59-19.68 241.38-19.68L241.38-19.68ZM272.48 0L272.68-1.49 267.06-2.15 267.06-11.33Q267.33-13.31 267.97-14.93 268.6-16.55 269.49-17.5 270.38-18.46 271.36-18.46L271.36-18.46Q272.73-18.46 273.97-17.19L273.97-17.19Q274.68-17.68 275.08-18.29 275.49-18.9 275.49-19.51L275.49-19.51Q275.49-20.48 274.75-21.17 274.02-21.85 272.78-21.85L272.78-21.85Q271.6-21.85 270.47-21.02 269.33-20.19 268.42-18.64 267.5-17.09 266.92-15.01L266.92-15.01 266.58-15.01 266.92-21 266.53-21.41 260.2-20.7 259.98-19.43 263.89-18.48 263.89-2.1 260.11-1.27 259.91 0 272.48 0ZM292.63 0.73Q294.97 0.73 296.93-0.15 298.88-1.03 300.17-2.54L300.17-2.54 299.71-3.61Q298.34-2.69 297.1-2.29 295.85-1.9 294.31-1.9L294.31-1.9Q292.02-1.9 290.46-3.15 288.89-4.39 288.13-6.42 287.36-8.45 287.31-10.86L287.31-10.86 299.12-11.01Q299.3-11.65 299.42-12.63 299.54-13.62 299.54-14.21L299.54-14.21Q299.54-17.92 297.89-19.78 296.24-21.63 293.44-21.63L293.44-21.63Q291.02-21.63 288.81-20.28 286.6-18.92 285.23-16.33 283.87-13.75 283.87-10.25L283.87-10.25Q283.87-6.69 285.06-4.21 286.26-1.73 288.25-0.5 290.24 0.73 292.63 0.73L292.63 0.73ZM292.24-19.75Q294.02-19.75 295.06-18.43 296.1-17.11 296.1-14.89L296.1-14.89Q296.1-13.43 295.93-12.94L295.93-12.94 287.36-12.38Q287.41-14.77 288.08-16.43 288.75-18.09 289.83-18.92 290.92-19.75 292.24-19.75L292.24-19.75Z" opacity="1" transform="matrix(1,0,0,1,0,0)" fill="#f36527" class="undefined-text-1" data-fill-palette-color="secondary" id="text-1"></path></svg></g></svg></g></svg></g></svg></g></svg></g></svg></g></svg></g><g><path d="M0 123.6c0-68.262 55.338-123.6 123.6-123.6 52.42 0 97.219 32.633 115.189 78.693l-2.083 0c-17.868-44.966-61.775-76.755-113.106-76.755-67.192 0-121.662 54.47-121.662 121.662 0 67.192 54.47 121.662 121.662 121.662 51.331 0 95.238-31.789 113.106-76.755h2.083c-17.97 46.059-62.768 78.693-115.189 78.693-68.262 0-123.6-55.338-123.6-123.6z" fill="#6f605b" stroke="transparent" data-fill-palette-color="tertiary"></path></g></svg></g><defs></defs></svg><rect width="395.52" height="247.2" fill="none" stroke="none" visibility="hidden"></rect></g></svg></g></svg>